<svg width="251" height="222" viewBox="0 0 251 222" fill="none" xmlns="http://www.w3.org/2000/svg">
<path d="M79 5.22278C79 4.56449 79.625 4.08579 80.2606 4.25732L248 49.5317V218.083L79 172.468V5.22278Z" stroke="black" stroke-width="6"/>
<path d="M79 5.21279C79 4.55527 79.6237 4.0767 80.2588 4.24686L154 24.0042V98.0904L79 77.9958V5.21279Z" stroke="black" stroke-width="6"/>
<path d="M79 5.21279C79 4.55527 78.3763 4.0767 77.7412 4.24686L4 24.0042V98.0904L79 77.9958V5.21279Z" stroke="black" stroke-width="6"/>
<path d="M154 195V27" stroke="black" stroke-width="6"/>
<path d="M30.7699 156.748C30.7699 156.748 25.4994 166.313 18.1698 168.306C14.0082 169.438 3.68465 168.604 2.54742 164.422C1.41019 160.241 9.88998 154.294 14.0515 153.162C20.0796 151.523 30.7699 156.748 30.7699 156.748Z" fill="#E85811"/>
<path d="M85.5 132.5C85.5 132.5 81.769 143.468 73.9994 150.918C71.9521 152.881 65.7279 155.648 63.7553 153.591C61.7827 151.534 64.8087 145.431 66.856 143.468C73.9994 136.619 85.5 132.5 85.5 132.5Z" fill="#E85811"/>
<path d="M51.3914 126.448C51.3914 126.448 49.7025 130.378 43.3909 130.974C41.7279 131.132 37.8426 130.132 37.6846 128.461C37.5265 126.79 41.1556 125.08 42.8187 124.923C48.6215 124.374 51.3914 126.448 51.3914 126.448Z" fill="#E85811"/>
<ellipse cx="92" cy="38.5" rx="32" ry="18.5" fill="white"/>
<path d="M133 56L128.565 55.3093C122.06 54.2963 116.16 50.9133 112 45.8113L118.462 41C120.539 46.8238 124.731 51.6535 130.204 54.5303L133 56Z" fill="white" stroke="white"/>
<path d="M88.1729 39.582C88.1729 40.6484 87.9154 41.5098 87.4004 42.166C86.89 42.8177 86.1859 43.1436 85.2881 43.1436C84.805 43.1436 84.3857 43.0524 84.0303 42.8701C83.6748 42.6833 83.3786 42.4098 83.1416 42.0498L83.0186 43H81.8564V33.3955L80.7422 33.2041V32.3359H83.2031V36.4785C83.4355 36.1504 83.7227 35.8997 84.0645 35.7266C84.4108 35.5534 84.8141 35.4668 85.2744 35.4668C86.1859 35.4668 86.8968 35.8314 87.4072 36.5605C87.9176 37.2897 88.1729 38.249 88.1729 39.4385V39.582ZM86.8193 39.4385C86.8193 38.5863 86.6644 37.8936 86.3545 37.3604C86.0446 36.8271 85.5706 36.5605 84.9326 36.5605C84.5179 36.5605 84.167 36.6608 83.8799 36.8613C83.5973 37.0618 83.3717 37.3307 83.2031 37.668V40.9355C83.3717 41.2773 83.5996 41.5485 83.8867 41.749C84.1784 41.9495 84.5316 42.0498 84.9463 42.0498C85.5798 42.0498 86.0492 41.8242 86.3545 41.373C86.6644 40.9219 86.8193 40.3249 86.8193 39.582V39.4385ZM96.458 36.4717L95.7949 36.5742L92.9785 44.1348C92.7917 44.6315 92.5228 45.0645 92.1719 45.4336C91.821 45.8027 91.3493 45.9873 90.7568 45.9873C90.652 45.9873 90.5153 45.9736 90.3467 45.9463C90.1781 45.9235 90.0482 45.9007 89.957 45.8779L90.0938 44.8184C90.0664 44.8138 90.1462 44.8184 90.333 44.832C90.5244 44.8457 90.6452 44.8525 90.6953 44.8525C90.9824 44.8525 91.2148 44.7272 91.3926 44.4766C91.5703 44.2305 91.7253 43.9456 91.8574 43.6221L92.1787 42.8564L89.7383 36.5811L89.0615 36.4717V35.6035H92.0488V36.4717L91.2148 36.6084L92.4932 40.2588L92.7393 41.2021H92.7803L94.3184 36.6084L93.4775 36.4717V35.6035H96.458V36.4717ZM100.655 43.1436C99.6253 43.1436 98.805 42.8018 98.1943 42.1182C97.5882 41.43 97.2852 40.5391 97.2852 39.4453V39.1445C97.2852 38.0918 97.5973 37.2168 98.2217 36.5195C98.8506 35.8177 99.5934 35.4668 100.45 35.4668C101.444 35.4668 102.196 35.7676 102.706 36.3691C103.221 36.9707 103.479 37.7728 103.479 38.7754V39.6162H98.6797L98.6592 39.6504C98.6729 40.3613 98.8529 40.9469 99.1992 41.4072C99.5456 41.863 100.031 42.0908 100.655 42.0908C101.111 42.0908 101.51 42.027 101.852 41.8994C102.198 41.7673 102.496 41.5872 102.747 41.3594L103.273 42.2344C103.009 42.4896 102.658 42.7061 102.221 42.8838C101.788 43.057 101.266 43.1436 100.655 43.1436ZM100.45 36.5264C99.999 36.5264 99.6139 36.7178 99.2949 37.1006C98.9759 37.4788 98.7799 37.9551 98.707 38.5293L98.7207 38.5635H102.132V38.3857C102.132 37.8571 101.991 37.415 101.708 37.0596C101.425 36.7041 101.006 36.5264 100.45 36.5264Z" fill="black"/>
</svg>